<?xml version="1.0" encoding="UTF-8"?>
<svg id="Layer_1" data-name="Layer 1" xmlns="http://www.w3.org/2000/svg" viewBox="0 0 202.58 269.68">
  <defs>
    <style>
      .cls-1 {
        fill: #ddd;
      }

      .cls-2 {
        fill: #262626;
      }

      .cls-3, .cls-4 {
        fill: #cca406;
      }

      .cls-5 {
        fill: #bababa;
      }

      .cls-6 {
        fill: #565550;
      }

      .cls-7 {
        fill: #c1c1c1;
        opacity: .7;
      }

      .cls-8 {
        fill: #efe4bf;
      }

      .cls-4 {
        stroke: #fff;
        stroke-miterlimit: 10;
        stroke-width: .2px;
      }
    </style>
  </defs>
  <rect class="cls-2" width="202.58" height="269.68" rx="27.9" ry="27.9"/>
  <circle class="cls-3" cx="31.29" cy="31.45" r="28.23"/>
  <circle cx="31.29" cy="31.45" r="15.48"/>
  <circle class="cls-3" cx="164.84" cy="31.45" r="28.23"/>
  <circle cx="164.84" cy="31.45" r="15.48"/>
  <circle class="cls-7" cx="104.72" cy="111.98" r="28.75"/>
  <circle class="cls-1" cx="89.99" cy="108.31" r="8.71"/>
  <circle class="cls-1" cx="118.39" cy="108.31" r="8.71"/>
  <rect class="cls-8" x="52.9" y="211.94" width="90.65" height="56.77"/>
  <rect class="cls-6" x="68.39" y="220.97" width="11.61" height="30.32"/>
  <rect class="cls-6" x="118.39" y="220.97" width="11.61" height="30.32"/>
  <rect class="cls-5" x="77.42" y="181.61" width="11.29" height="30.32"/>
  <rect class="cls-5" x="94.84" y="181.61" width="11.29" height="30.32"/>
  <rect class="cls-5" x="112.74" y="181.61" width="11.29" height="30.32"/>
  <g>
    <path class="cls-4" d="m44.06,85.39v1.98l-12.77,3.91v-2.12l2.31-.67v-4.24l-2.31-.65v-2.09l12.77,3.88Zm-8.49,2.54l5.41-1.57-5.41-1.54v3.12Z"/>
    <path class="cls-4" d="m40.7,95.77c0,2.13-1.48,3.43-3.93,3.43h-5.48v-1.93h5.41c1.29,0,1.98-.55,1.98-1.5s-.7-1.5-1.98-1.5h-5.41v-1.93h5.48c2.45,0,3.93,1.28,3.93,3.43Z"/>
    <path class="cls-4" d="m35.88,100.6c2.8,0,4.82,1.9,4.82,4.32s-2.02,4.32-4.82,4.32-4.84-1.9-4.84-4.32,2.04-4.32,4.84-4.32Zm-2.8,4.32c0,1.36,1.15,2.38,2.8,2.38s2.8-1.03,2.8-2.38-1.15-2.38-2.8-2.38-2.8,1.03-2.8,2.38Z"/>
    <path class="cls-4" d="m44.72,110.74v1.93h-13.43v-1.93h13.43Z"/>
    <path class="cls-4" d="m35.88,114.16c2.8,0,4.82,1.9,4.82,4.32s-2.02,4.32-4.82,4.32-4.84-1.9-4.84-4.32,2.04-4.32,4.84-4.32Zm-2.8,4.32c0,1.36,1.15,2.38,2.8,2.38s2.8-1.03,2.8-2.38-1.15-2.38-2.8-2.38-2.8,1.03-2.8,2.38Z"/>
    <path class="cls-4" d="m29.78,125.98v1.84c0,1.71.71,2.68,2.4,2.7h.4c-.73-.55-1.13-1.43-1.13-2.51,0-2.29,1.81-4.11,4.57-4.11s4.64,1.84,4.64,4.08c0,1.09-.45,2.09-1.29,2.68l1.11.02v1.71h-8.12c-3.06,0-4.54-1.76-4.54-4.61v-1.79h1.95Zm3.58,2.24c0,1.32.97,2.37,2.64,2.37s2.68-1.04,2.68-2.38-1.08-2.38-2.66-2.38-2.66,1-2.66,2.4Z"/>
    <path class="cls-4" d="m44.06,140.92v1.98l-12.77,3.91v-2.12l2.31-.67v-4.24l-2.31-.65v-2.09l12.77,3.88Zm-8.49,2.54l5.41-1.57-5.41-1.54v3.12Z"/>
    <path class="cls-4" d="m40.7,151.03c0,1.17-.52,2.03-1.34,2.49.82.47,1.34,1.32,1.34,2.51,0,1.96-1.46,3.16-3.93,3.16h-5.48v-1.93h5.53c1.17,0,1.86-.5,1.86-1.36s-.7-1.4-1.93-1.4h-5.46v-1.93h5.46c1.24,0,1.93-.53,1.93-1.4s-.7-1.35-1.86-1.35h-5.53v-1.93h5.48c2.47,0,3.93,1.18,3.93,3.15Z"/>
    <path class="cls-4" d="m32.4,162.74l-1.11-.02v-1.71h13.43v1.93h-2.96c-.71,0-1.48-.02-2.17-.05.7.59,1.08,1.53,1.08,2.51,0,2.23-1.95,4.1-4.78,4.1s-4.77-1.87-4.77-4.1c0-1.08.47-2.09,1.29-2.66Zm.7,2.42c0,1.39,1.13,2.4,2.78,2.4s2.8-1.01,2.8-2.4-1.03-2.35-2.8-2.35-2.78,1.03-2.78,2.35Z"/>
    <path class="cls-4" d="m40.49,171v1.93h-9.2v-1.93h9.2Zm4.23,0v1.93h-2.7v-1.93h2.7Z"/>
    <path class="cls-4" d="m35.87,174.43c2.82,0,4.82,1.81,4.82,4.19,0,2.18-1.65,4.14-5.27,3.96v-6.34c-1.46.16-2.47,1.14-2.47,2.54,0,1.03.54,1.9,1.53,2.51l-1.13,1.28c-1.3-.81-2.26-2.09-2.26-3.83,0-2.57,2.02-4.3,4.78-4.3Zm1.1,6.33c1.29-.23,1.95-1.06,1.95-2.15,0-1.15-.8-2.03-1.95-2.31v4.46Z"/>
    <path class="cls-4" d="m40.7,187.47c0,2.13-1.48,3.43-3.93,3.43h-5.48v-1.93h5.41c1.29,0,1.98-.55,1.98-1.5s-.7-1.5-1.98-1.5h-5.41v-1.93h5.48c2.45,0,3.93,1.28,3.93,3.43Z"/>
    <path class="cls-4" d="m38.54,193.15v-1h1.95v1h2.45l.73,1.93h-3.18v1.01h-1.95v-1.01l-7.25-.02v-1.93l7.25.02Z"/>
    <path class="cls-4" d="m23.19,82.55v2.03h-10.66v4.18h-2.1v-6.2h12.77Z"/>
    <path class="cls-4" d="m19.63,89.96v1.93h-9.2v-1.93h9.2Zm4.23,0v1.93h-2.7v-1.93h2.7Z"/>
    <path class="cls-4" d="m8.91,95.49v1.84c0,1.71.71,2.68,2.4,2.7h.4c-.73-.55-1.13-1.43-1.13-2.51,0-2.29,1.81-4.11,4.57-4.11s4.64,1.84,4.64,4.08c0,1.09-.45,2.09-1.29,2.68l1.11.02v1.71h-8.12c-3.06,0-4.54-1.76-4.54-4.61v-1.79h1.95Zm3.58,2.24c0,1.32.97,2.37,2.64,2.37s2.68-1.04,2.68-2.38-1.08-2.38-2.66-2.38-2.66,1-2.66,2.4Z"/>
    <path class="cls-4" d="m23.85,103.81v1.93h-2.97c-.7,0-1.37-.02-2-.03.61.47.96,1.18.96,2.07,0,1.82-1.43,2.88-3.9,2.88h-5.51v-1.93h5.38c1.32,0,2.02-.51,2.02-1.48s-.7-1.51-2.02-1.51h-5.38v-1.93h13.43Z"/>
    <path class="cls-4" d="m17.68,112.93v-1h1.95v1h2.45l.73,1.93h-3.18v1.01h-1.95v-1.01l-7.25-.02v-1.93l7.25.02Z"/>
    <path class="cls-4" d="m10.42,121.05h2.14c-.1.93-.14,1.53-.14,1.98,0,1.39.49,2.04,1.53,2.04.68,0,1.2-.3,1.86-1.2l.87-1.22c.87-1.18,1.95-1.76,3.27-1.76,2.12,0,3.39,1.39,3.39,3.74,0,.5-.05,1.04-.16,1.68h-2.02c.09-.62.16-1.17.16-1.62,0-1.18-.45-1.78-1.3-1.78-.59,0-1.06.3-1.6,1.06l-.77,1.06c-1.03,1.43-2.17,2.07-3.67,2.07-2.37,0-3.72-1.46-3.72-4.04,0-.5.04-1.11.16-2.02Z"/>
    <path class="cls-4" d="m15,128.24c2.82,0,4.82,1.81,4.82,4.19,0,2.18-1.65,4.14-5.27,3.96v-6.34c-1.46.16-2.47,1.14-2.47,2.54,0,1.03.54,1.9,1.53,2.51l-1.13,1.28c-1.3-.81-2.26-2.09-2.26-3.83,0-2.57,2.02-4.3,4.78-4.3Zm1.1,6.33c1.29-.23,1.95-1.06,1.95-2.15,0-1.15-.8-2.03-1.95-2.31v4.46Z"/>
    <path class="cls-4" d="m19.84,141.28c0,2.13-1.48,3.43-3.93,3.43h-5.48v-1.93h5.41c1.29,0,1.98-.54,1.98-1.5s-.7-1.5-1.98-1.5h-5.41v-1.93h5.48c2.45,0,3.93,1.28,3.93,3.43Z"/>
    <path class="cls-4" d="m10.42,146.29h1.86c-.1.65-.14,1.18-.14,1.54,0,.86.28,1.25.85,1.25.45,0,.78-.25,1.29-.9l.4-.51c.78-1.01,1.51-1.45,2.52-1.45,1.58,0,2.54,1.06,2.54,2.87,0,.37-.03.83-.12,1.29h-1.71c.07-.47.09-.83.09-1.04,0-.83-.28-1.25-.77-1.25-.35,0-.64.25-1.11.89l-.38.5c-.85,1.12-1.65,1.59-2.73,1.59-1.7,0-2.71-1.15-2.71-3.13,0-.42.05-1.03.12-1.64Z"/>
    <path class="cls-4" d="m15.02,152.08c2.8,0,4.82,1.9,4.82,4.32s-2.02,4.32-4.82,4.32-4.84-1.9-4.84-4.32,2.04-4.32,4.84-4.32Zm-2.8,4.32c0,1.36,1.15,2.38,2.8,2.38s2.8-1.03,2.8-2.38-1.15-2.38-2.8-2.38-2.8,1.03-2.8,2.38Z"/>
    <path class="cls-4" d="m19.63,164.88v1h-1.95v-.81c0-.7-.31-.98-1.11-.98h-6.14v-1.93h6.09c2.16,0,3.11.97,3.11,2.73Z"/>
    <path class="cls-4" d="m23.19,169.94v2.18l-9.5,2.62,9.5,2.59v2.1l-12.77-3.74v-1.99l12.77-3.75Z"/>
    <path class="cls-4" d="m12.51,183v4.44h-2.09v-7.28h1.64l4.61,3.58c.83.62,1.88,1.51,2.96,1.51.83,0,1.62-.55,1.62-1.48s-.64-1.57-1.95-1.82l.56-1.84c2.24.39,3.51,1.79,3.51,3.74,0,2.1-1.53,3.46-3.57,3.46s-3.32-1.25-4.57-2.23l-2.71-2.09Z"/>
  </g>
</svg>