<?xml version="1.0" encoding="UTF-8"?>
<svg xmlns="http://www.w3.org/2000/svg" viewBox="0 0 26.5 25.93">
  <defs>
    <style>
      .cls-1 {
        font-size: 2.33px;
      }

      .cls-1, .cls-2, .cls-3, .cls-4, .cls-5 {
        fill: #cca406;
      }

      .cls-1, .cls-3, .cls-4, .cls-5 {
        font-family: NewOrder-Semibold, 'New Order';
        font-weight: 600;
      }

      .cls-6 {
        letter-spacing: -.02em;
      }

      .cls-7 {
        fill: #e2e2e2;
      }

      .cls-8 {
        fill: #876a0f;
      }

      .cls-9 {
        letter-spacing: -.03em;
      }

      .cls-10 {
        fill: #ccc;
        opacity: .9;
      }

      .cls-11 {
        fill: #3a3a3a;
      }

      .cls-12 {
        letter-spacing: -.02em;
      }

      .cls-13 {
        fill: #d3d3d3;
      }

      .cls-14 {
        fill: #adadad;
      }

      .cls-15 {
        fill: #008bd8;
      }

      .cls-3 {
        font-size: 1.94px;
      }

      .cls-4 {
        font-size: 2.46px;
      }

      .cls-5 {
        font-size: 2.19px;
      }

      .cls-16 {
        letter-spacing: -.06em;
      }

      .cls-17 {
        letter-spacing: -.02em;
      }
    </style>
  </defs>
  <g id="Layer_3" data-name="Layer 3">
    <rect class="cls-15" x=".7" y=".21" width="25.11" height="25.11" rx="3.6" ry="3.6"/>
    <rect class="cls-14" x="10.51" y="11.15" width="3.91" height=".88"/>
    <rect class="cls-14" x="10.51" y="9.7" width="3.91" height=".88"/>
    <rect class="cls-14" x="10.51" y="12.77" width="3.91" height=".88"/>
    <rect class="cls-14" x="10.51" y="14.25" width="3.91" height=".88"/>
    <rect class="cls-10" x="11.59" y="8.39" width="5.01" height="8.43"/>
  </g>
  <g id="Layer_2" data-name="Layer 2">
    <circle class="cls-2" cx="22.13" cy="4.1" r="3.29"/>
    <circle cx="22.13" cy="4.1" r="1.8"/>
    <circle class="cls-2" cx="4.58" cy="4.1" r="3.29"/>
    <circle cx="4.58" cy="4.1" r="1.8"/>
    <circle class="cls-2" cx="5.54" cy="21.59" r="1.32"/>
    <circle cx="5.54" cy="21.59" r=".72"/>
    <circle class="cls-2" cx="9.4" cy="21.59" r="1.32"/>
    <circle cx="9.4" cy="21.59" r=".72"/>
    <circle class="cls-2" cx="13.25" cy="21.75" r="1.32"/>
    <circle cx="13.25" cy="21.75" r=".72"/>
    <circle class="cls-2" cx="17.07" cy="21.75" r="1.32"/>
    <circle cx="17.07" cy="21.75" r=".72"/>
    <circle class="cls-2" cx="21.01" cy="21.59" r="1.32"/>
    <circle cx="21.01" cy="21.59" r=".72"/>
    <text class="cls-4" transform="translate(3.67 19.89)"><tspan x="0" y="0">VIN</tspan></text>
    <text class="cls-5" transform="translate(7.53 24.79) scale(1.03 1)"><tspan class="cls-12" x="0" y="0">3</tspan><tspan class="cls-16" x="1.27" y="0">V</tspan><tspan x="2.53" y="0">o</tspan></text>
    <text class="cls-1" transform="translate(10.87 20.14)"><tspan x="0" y="0">GND</tspan></text>
    <text class="cls-3" transform="translate(15.37 24.79) scale(1.09 1)"><tspan x="0" y="0">SC</tspan><tspan class="cls-9" x="2.06" y="0">L</tspan></text>
    <text class="cls-1" transform="translate(18.84 19.89)"><tspan x="0" y="0">S</tspan><tspan class="cls-6" x="1.13" y="0">D</tspan><tspan class="cls-17" x="2.75" y="0">A</tspan></text>
    <g>
      <path class="cls-2" d="m8.3,1.31h.57l.68,1.72.67-1.72h.55l-.97,2.31h-.52l-.97-2.31Z"/>
      <path class="cls-2" d="m11.15,1.31h1.6v.38h-1.08v.56h1.07v.38h-1.07v.61h1.1v.38h-1.63V1.31Z"/>
      <path class="cls-2" d="m13.34,1.31h.53l.94,1.27.94-1.27h.52v2.31h-.5v-1.61l-.8,1.09h-.32l-.81-1.09v1.61h-.5V1.31Z"/>
      <path class="cls-2" d="m16.93,1.31h.53v1.93h1.08v.38h-1.61V1.31Z"/>
      <path class="cls-2" d="m10.04,5.47h-1.25v-.39h1.86v.3l-1.1,2.01h-.57l1.06-1.92Z"/>
      <path class="cls-2" d="m12.08,5.47h-1.25v-.39h1.86v.3l-1.1,2.01h-.57l1.06-1.92Z"/>
      <path class="cls-2" d="m12.99,6.23c0-.77.4-1.2,1.1-1.2s1.1.43,1.1,1.2-.4,1.2-1.1,1.2-1.1-.43-1.1-1.2Zm1.1.8c.36,0,.56-.28.56-.8s-.21-.81-.56-.81-.56.28-.56.81.2.8.56.8Z"/>
      <path class="cls-2" d="m15.61,6.23c0-.77.4-1.2,1.1-1.2s1.1.43,1.1,1.2-.4,1.2-1.1,1.2-1.1-.43-1.1-1.2Zm1.1.8c.36,0,.56-.28.56-.8s-.21-.81-.56-.81-.56.28-.56.81.2.8.56.8Z"/>
    </g>
    <rect class="cls-11" x="3.89" y="10.39" width="2.49" height="4.43"/>
    <rect class="cls-7" x="2.46" y="10.68" width="1.57" height=".85"/>
    <rect class="cls-7" x="2.46" y="12.11" width="1.57" height=".85"/>
    <rect class="cls-7" x="2.46" y="13.55" width="1.57" height=".85"/>
    <rect class="cls-7" x="6.24" y="10.68" width="1.57" height=".85"/>
    <rect class="cls-7" x="6.24" y="13.55" width="1.57" height=".85"/>
    <rect class="cls-11" x="17.38" y="9.41" width="4.57" height="1.7"/>
    <rect class="cls-7" x="17.44" y="8.29" width=".79" height="1.3"/>
    <rect class="cls-7" x="18.79" y="8.29" width=".7" height="1.3"/>
    <rect class="cls-7" x="20" y="8.29" width=".71" height="1.3"/>
    <rect class="cls-7" x="21.36" y="8.29" width=".51" height="1.3"/>
    <rect class="cls-7" x="21.36" y="10.99" width=".6" height="1.19"/>
    <rect class="cls-7" x="20" y="10.99" width=".71" height="1.19"/>
    <rect class="cls-7" x="18.79" y="10.99" width=".7" height="1.19"/>
    <rect class="cls-7" x="17.44" y="10.99" width=".72" height="1.19"/>
    <rect class="cls-11" x="18.34" y="13.68" width="1.81" height="3.01"/>
    <rect class="cls-7" x="17.62" y="13.68" width=".82" height=".75"/>
    <rect class="cls-7" x="17.62" y="14.86" width=".82" height=".55"/>
    <rect class="cls-7" x="17.62" y="15.86" width=".82" height=".67"/>
    <rect class="cls-7" x="20" y="15.91" width="1.01" height=".62"/>
    <rect class="cls-7" x="20" y="14.86" width="1.1" height=".55"/>
    <rect class="cls-7" x="20" y="13.68" width="1.1" height=".7"/>
    <rect class="cls-13" x="3.43" y="15.93" width="3.22" height="1.52"/>
    <rect class="cls-8" x="4.14" y="15.93" width="1.8" height="1.52"/>
    <rect class="cls-13" x="3.43" y="8.18" width="3.22" height="1.52"/>
    <rect class="cls-8" x="4.14" y="8.18" width="1.8" height="1.52"/>
    <rect class="cls-13" x="7.69" y="12.27" width="2.19" height=".83" transform="translate(21.45 3.86) rotate(89.85)"/>
    <rect class="cls-8" x="8.18" y="12.27" width="1.23" height=".83" transform="translate(21.45 3.86) rotate(89.85)"/>
  </g>
</svg>