<?xml version="1.0" encoding="UTF-8"?>
<svg id="Layer_1" data-name="Layer 1" xmlns="http://www.w3.org/2000/svg" viewBox="0 0 154.08 152.7">
  <defs>
    <style>
      .cls-1 {
        fill: none;
      }

      .cls-1, .cls-2, .cls-3 {
        stroke: #231f20;
        stroke-miterlimit: 10;
      }

      .cls-2 {
        fill: #fff;
      }

      .cls-3 {
        fill: #333;
      }
    </style>
  </defs>
  <rect class="cls-3" x=".5" y=".5" width="153.08" height="151.7"/>
  <path class="cls-2" d="m85.01,7.9c-.76-.03-1.52-.09-2.28-.17-3.58,0-7.16-.05-10.75-.17C36.16,10,7.85,39.82,7.85,76.26s30.83,68.87,68.87,68.87,68.87-30.83,68.87-68.87c0-35.23-26.46-64.26-60.58-68.36Z"/>
  <polygon class="cls-2" points="60.75 47.66 44.3 47.66 36.07 61.91 44.3 76.15 60.75 76.15 68.98 61.91 60.75 47.66"/>
  <polygon class="cls-2" points="84.94 61.91 68.49 61.91 60.27 76.15 68.49 90.4 84.94 90.4 93.17 76.15 84.94 61.91"/>
  <polygon class="cls-2" points="84.94 33.41 68.49 33.41 60.27 47.66 68.49 61.91 84.94 61.91 93.17 47.66 84.94 33.41"/>
  <polygon class="cls-2" points="60.75 76.15 44.3 76.15 36.07 90.4 44.3 104.65 60.75 104.65 68.98 90.4 60.75 76.15"/>
  <polygon class="cls-2" points="84.94 90.4 68.49 90.4 60.27 104.65 68.49 118.9 84.94 118.9 93.17 104.65 84.94 90.4"/>
  <polygon class="cls-2" points="109.78 76.15 93.33 76.15 85.1 90.4 93.33 104.65 109.78 104.65 118.01 90.4 109.78 76.15"/>
  <polygon class="cls-2" points="109.78 47.66 93.33 47.66 85.1 61.91 93.33 76.15 109.78 76.15 118.01 61.91 109.78 47.66"/>
  <polygon class="cls-2" points="60.75 19.16 44.3 19.16 36.07 33.41 44.3 47.66 60.75 47.66 68.98 33.41 60.75 19.16"/>
  <polygon class="cls-2" points="36.57 61.91 20.11 61.91 11.89 76.15 20.11 90.4 36.57 90.4 44.79 76.15 36.57 61.91"/>
  <polygon class="cls-2" points="60.75 104.65 44.3 104.65 36.07 118.9 44.3 133.14 60.75 133.14 68.98 118.9 60.75 104.65"/>
  <polygon class="cls-2" points="109.78 104.65 93.33 104.65 85.1 118.9 93.33 133.14 109.78 133.14 118.01 118.9 109.78 104.65"/>
  <polygon class="cls-2" points="133.99 62.01 117.53 62.01 109.31 76.26 117.53 90.51 133.99 90.51 142.21 76.26 133.99 62.01"/>
  <polygon class="cls-2" points="109.78 19.16 93.33 19.16 85.1 33.41 93.33 47.66 109.78 47.66 118.01 33.41 109.78 19.16"/>
  <polyline class="cls-2" points="13.07 49.7 20.11 61.91 36.57 61.91 44.79 47.66 36.57 33.41 22.81 33.41"/>
  <polyline class="cls-2" points="22.63 118.9 36.57 118.9 44.79 104.65 36.57 90.4 20.11 90.4 13.07 102.61"/>
  <polyline class="cls-2" points="87.02 144.36 93.5 133.14 85.28 118.9 68.82 118.9 60.6 133.14 67.14 144.47"/>
  <polyline class="cls-2" points="140.59 101.84 133.99 90.4 117.53 90.4 109.31 104.65 117.53 118.9 130.81 118.9"/>
  <polyline class="cls-2" points="130.63 33.41 117.53 33.41 109.31 47.66 117.53 61.91 133.99 61.91 140.59 50.46"/>
  <polyline class="cls-2" points="66.63 8.14 60.27 19.16 68.49 33.41 84.94 33.41 93.17 19.16 86.81 8.14"/>
  <line class="cls-1" x1="142.21" y1="76.26" x2="145.59" y2="76.26"/>
  <line class="cls-1" x1="11.89" y1="76.15" x2="7.85" y2="76.26"/>
  <line class="cls-1" x1="44.3" y1="19.16" x2="42.49" y2="16.5"/>
  <line class="cls-1" x1="109.78" y1="19.16" x2="111.34" y2="16.73"/>
  <line class="cls-1" x1="109.78" y1="133.14" x2="111.55" y2="135.68"/>
  <line class="cls-1" x1="44.3" y1="133.14" x2="42.48" y2="136.03"/>
</svg>